# xmcd
#
# Track frame offsets:
#	150
#	16855
#	35952
#	51570
#	71067
#	85290
#	109030
#	130297
#	151017
#	170032
#	187680
#
# Disc length: 2791 seconds
#
# Revision: 9
# Processed by: cddbd v1.5.2PL0 Copyright (c) Steve Scherf et al.
# Submitted via: audiograbber 1.83.01
#
DISCID=920ae50b
DTITLE=Georges Brassens - Cd 08 - 1972-13ème Album
DYEAR=1972
DGENRE=Variété Française
TTITLE0=Fernande
TTITLE1=Stances à un cambrioleur
TTITLE2=La ballade des gens qui sont nés quelque part
TTITLE3=La princesse et le croque-notes
TTITLE4=Sauf le respect que je vous dois
TTITLE5=Le blason
TTITLE6=Mourir pour des idées
TTITLE7=Quatre-vingt - quinze pour cent
TTITLE8=Les passantes
TTITLE9=Le roi
TTITLE10=À l'ombre des maris
EXTD=CD8 - 1972
EXTT0=
EXTT1=
EXTT2=
EXTT3=
EXTT4=
EXTT5=
EXTT6=
EXTT7=
EXTT8=
EXTT9=
EXTT10=
PLAYORDER=
